<svg width="1440" height="311" viewBox="0 0 1440 311" fill="none" xmlns="http://www.w3.org/2000/svg">
<path fill-rule="evenodd" clip-rule="evenodd" d="M677 39H624V75H677V39ZM144.967 235.572H92.0335V160H39V255.946C39 259.938 40.5873 263.768 43.4128 266.591C46.2383 269.414 50.0705 271 54.0663 271H183.034C187.013 270.973 190.819 269.376 193.623 266.555C196.427 263.735 198 259.921 198 255.946V160H144.967V235.572ZM144.967 112.305V39H198V148H39V127.329C39.0123 125.308 39.4279 123.311 40.2222 121.454C41.0166 119.597 42.1736 117.918 43.6248 116.518C45.0761 115.117 46.7923 114.023 48.6719 113.299C50.5516 112.576 52.5566 112.238 54.5685 112.305H144.967ZM871.067 235.572H818.034V160H765V255.946C765 259.938 766.587 263.768 769.413 266.591C772.238 269.414 776.07 271 780.066 271H909.034C913.013 270.973 916.819 269.376 919.623 266.555C922.427 263.735 924 259.921 924 255.946V160H871.067V235.572ZM871.067 112.305V39H924V148H765V127.329C765.027 123.335 766.626 119.514 769.448 116.7C772.271 113.885 776.088 112.305 780.066 112.305H871.067ZM428 148.593V128.254C428 124.209 426.414 120.329 423.59 117.468C420.766 114.607 416.936 113 412.943 113H322V149L428 148.593ZM374.975 235.472V160H428V255.946C428 259.938 426.413 263.768 423.588 266.591C420.763 269.414 416.931 271 412.936 271H231.064C227.069 271 223.237 269.414 220.412 266.591C217.587 263.768 216 259.938 216 255.946V160H268.925V235.472H374.975ZM268.925 148V74.6947H428V39H231.064C227.069 39 223.237 40.5935 220.412 43.43C217.587 46.2664 216 50.1135 216 54.1249V148H268.925ZM552.967 235.472V160H606V255.946C606 259.921 604.427 263.735 601.623 266.555C598.819 269.376 595.013 270.973 591.034 271H462.066C458.07 271 454.238 269.414 451.413 266.591C448.587 263.768 447 259.938 447 255.946V160H500.034V235.472H552.967ZM606 112H553V148H606V112ZM447 112H500V148H447V112ZM677 112H624V148H677V112ZM624 160H677V271H624V160ZM748 39H695V148H748V39ZM695 160H748V271H695V160ZM1088 178.065V160H1041.53H1023.47H977V178.065H1023.47V252.935H977V271H1023.47H1041.53H1088V252.935H1041.53V178.065H1088ZM1383 253H1401V271.001H1383V253ZM1347 178.165V160H1251.05C1247.06 160 1243.23 161.586 1240.41 164.409C1237.59 167.232 1236 171.062 1236 175.054V255.946C1236 259.938 1237.59 263.768 1240.41 266.591C1243.23 269.414 1247.06 271 1251.05 271H1347V253.136H1254.07V178.165H1347ZM1198.93 243.902V160H1217V271H1198.93L1124.07 187.098V271H1106V160H1124.07L1198.93 243.902Z" fill="white"/>
</svg>
