<svg width="1440" height="311" viewBox="0 0 1440 311" fill="none" xmlns="http://www.w3.org/2000/svg">
<path fill-rule="evenodd" clip-rule="evenodd" d="M677 40H624V76H677V40ZM144.967 236.572H92.0335V161H39V256.946C39 260.938 40.5873 264.768 43.4128 267.591C46.2383 270.414 50.0705 272 54.0663 272H183.034C187.013 271.973 190.819 270.376 193.623 267.555C196.427 264.735 198 260.921 198 256.946V161H144.967V236.572ZM144.967 113.305V40H198V149H39V128.329C39.0123 126.308 39.4279 124.311 40.2222 122.454C41.0166 120.597 42.1736 118.918 43.6248 117.518C45.0761 116.117 46.7923 115.023 48.6719 114.299C50.5516 113.576 52.5566 113.238 54.5685 113.305H144.967ZM871.067 236.572H818.034V161H765V256.946C765 260.938 766.587 264.768 769.413 267.591C772.238 270.414 776.07 272 780.066 272H909.034C913.013 271.973 916.819 270.376 919.623 267.555C922.427 264.735 924 260.921 924 256.946V161H871.067V236.572ZM871.067 113.305V40H924V149H765V128.329C765.027 124.335 766.626 120.514 769.448 117.7C772.271 114.885 776.088 113.305 780.066 113.305H871.067ZM428 149.593V129.254C428 125.209 426.414 121.329 423.59 118.468C420.766 115.607 416.936 114 412.943 114H322V150L428 149.593ZM374.975 236.472V161H428V256.946C428 260.938 426.413 264.768 423.588 267.591C420.763 270.414 416.931 272 412.936 272H231.064C227.069 272 223.237 270.414 220.412 267.591C217.587 264.768 216 260.938 216 256.946V161H268.925V236.472H374.975ZM268.925 149V75.6947H428V40H231.064C227.069 40 223.237 41.5935 220.412 44.43C217.587 47.2664 216 51.1135 216 55.1249V149H268.925ZM552.967 236.472V161H606V256.946C606 260.921 604.427 264.735 601.623 267.555C598.819 270.376 595.013 271.973 591.034 272H462.066C458.07 272 454.238 270.414 451.413 267.591C448.587 264.768 447 260.938 447 256.946V161H500.034V236.472H552.967ZM606 113H553V149H606V113ZM447 113H500V149H447V113ZM677 113H624V149H677V113ZM624 161H677V272H624V161ZM748 40H695V149H748V40ZM695 161H748V272H695V161ZM1088 179.065V161H1041.53H1023.47H977V179.065H1023.47V253.935H977V272H1023.47H1041.53H1088V253.935H1041.53V179.065H1088ZM1383 254H1401V272.001H1383V254ZM1347 179.165V161H1251.05C1247.06 161 1243.23 162.586 1240.41 165.409C1237.59 168.232 1236 172.062 1236 176.054V256.946C1236 260.938 1237.59 264.768 1240.41 267.591C1243.23 270.414 1247.06 272 1251.05 272H1347V254.136H1254.07V179.165H1347ZM1198.93 244.902V161H1217V272H1198.93L1124.07 188.098V272H1106V161H1124.07L1198.93 244.902Z" fill="#090417"/>
</svg>
