<svg width="467" height="311" viewBox="0 0 467 311" fill="none" xmlns="http://www.w3.org/2000/svg">
<path fill-rule="evenodd" clip-rule="evenodd" d="M144.967 40V113.305H54.5685C52.5566 113.238 50.5516 113.576 48.6719 114.299C46.7923 115.023 45.0761 116.117 43.6248 117.518C42.1736 118.918 41.0166 120.597 40.2222 122.454C39.4279 124.311 39.0123 126.308 39 128.329V149H198V40H144.967ZM144.967 236.572H92.0335V161H39V256.946C39 260.938 40.5873 264.768 43.4128 267.591C46.2383 270.414 50.0705 272 54.0663 272H183.034C187.013 271.973 190.819 270.376 193.623 267.555C196.427 264.735 198 260.921 198 256.946V161H144.967V236.572ZM428 129.254V149.593L322 150V114H412.943C416.936 114 420.766 115.607 423.59 118.468C426.414 121.329 428 125.209 428 129.254ZM374.975 161V236.472H268.925V161H216V256.946C216 260.938 217.587 264.768 220.412 267.591C223.237 270.414 227.069 272 231.064 272H412.936C416.931 272 420.763 270.414 423.588 267.591C426.413 264.768 428 260.938 428 256.946V161H374.975ZM268.925 75.6947V149H216V55.1249C216 51.1135 217.587 47.2664 220.412 44.43C223.237 41.5935 227.069 40 231.064 40H428V75.6947H268.925Z" fill="white"/>
</svg>
