<svg width="850" height="525" viewBox="0 0 850 525" fill="none" xmlns="http://www.w3.org/2000/svg">
<g clip-path="url(#clip0_255_169)">
<path d="M242.983 253.632H239.184C236.396 253.636 233.663 254.401 231.278 255.844C228.894 257.288 226.949 259.354 225.652 261.822C223.716 265.017 220.794 267.496 217.325 268.884C213.857 270.271 210.031 270.492 206.425 269.514C202.82 268.536 199.631 266.41 197.339 263.46C195.048 260.509 193.779 256.893 193.724 253.157V216.48C193.724 212.671 192.211 209.018 189.518 206.325C186.825 203.632 183.172 202.119 179.363 202.119C175.554 202.119 171.899 203.632 169.206 206.325C166.512 209.018 165 212.671 165 216.48V305.739C165 309.548 166.512 313.201 169.206 315.894C171.899 318.588 175.554 320.101 179.363 320.101C183.172 320.101 186.825 318.588 189.518 315.894C192.211 313.201 193.724 309.548 193.724 305.739V293.869C194.082 289.567 196.044 285.557 199.221 282.633C202.398 279.71 206.558 278.087 210.875 278.087C215.192 278.087 219.353 279.71 222.53 282.633C225.707 285.557 227.669 289.567 228.027 293.869V305.739C228.027 309.548 229.54 313.201 232.233 315.894C234.927 318.588 238.58 320.101 242.389 320.101C246.198 320.101 249.851 318.588 252.544 315.894C255.237 313.201 256.75 309.548 256.75 305.739V267.994C256.753 264.286 255.322 260.72 252.755 258.043C250.189 255.366 246.688 253.785 242.983 253.632Z" fill="white"/>
<path d="M671.231 253.632H667.553C664.745 253.615 661.987 254.37 659.579 255.814C657.172 257.259 655.208 259.337 653.902 261.822C652.546 264.112 650.666 266.048 648.417 267.471C646.168 268.895 643.614 269.765 640.964 270.012C638.387 269.721 635.909 268.856 633.71 267.479C631.512 266.103 629.651 264.251 628.264 262.06C626.978 259.584 625.035 257.509 622.648 256.065C620.261 254.62 617.523 253.861 614.733 253.87H610.935C607.251 254.053 603.777 255.646 601.236 258.32C598.695 260.994 597.28 264.543 597.285 268.232V305.858C597.104 307.846 597.338 309.849 597.975 311.741C598.611 313.633 599.635 315.372 600.981 316.846C602.327 318.32 603.965 319.497 605.792 320.303C607.618 321.108 609.591 321.524 611.587 321.524C613.583 321.524 615.558 321.108 617.384 320.303C619.21 319.497 620.849 318.32 622.195 316.846C623.54 315.372 624.563 313.633 625.2 311.741C625.836 309.849 626.072 307.846 625.891 305.858V293.988C625.62 291.818 625.813 289.614 626.459 287.524C627.104 285.434 628.187 283.505 629.635 281.865C631.083 280.225 632.864 278.912 634.858 278.013C636.852 277.113 639.014 276.648 641.201 276.648C643.389 276.648 645.552 277.113 647.546 278.013C649.54 278.912 651.32 280.225 652.768 281.865C654.216 283.505 655.298 285.434 655.944 287.524C656.59 289.614 656.784 291.818 656.513 293.988V305.858C656.513 307.744 656.884 309.612 657.606 311.354C658.328 313.097 659.386 314.68 660.72 316.013C662.053 317.347 663.637 318.405 665.379 319.127C667.122 319.849 668.989 320.22 670.875 320.22C672.761 320.22 674.63 319.849 676.372 319.127C678.115 318.405 679.697 317.347 681.03 316.013C682.364 314.68 683.422 313.097 684.144 311.354C684.866 309.612 685.238 307.744 685.238 305.858V267.994C685.239 264.246 683.775 260.646 681.158 257.963C678.541 255.279 674.978 253.725 671.231 253.632Z" fill="white"/>
<path d="M333.428 256.956C324.948 251.336 314.853 248.666 304.704 249.359C299.527 249.346 294.36 249.823 289.273 250.784C285.183 251.409 281.193 252.567 277.403 254.226V271.436C284.594 268.165 292.413 266.505 300.312 266.57C312.181 266.57 318.235 270.25 318.235 277.609V279.033C315.208 277.592 312.02 276.516 308.739 275.828C305.115 275.022 301.413 274.625 297.701 274.641C289.888 274.094 282.127 276.276 275.743 280.814C273.203 282.98 271.195 285.702 269.878 288.769C268.56 291.836 267.968 295.166 268.146 298.499C267.972 301.815 268.604 305.125 269.989 308.143C271.374 311.161 273.47 313.798 276.098 315.829C282.067 320.2 289.361 322.379 296.751 322C301.312 322.082 305.853 321.359 310.163 319.864C313.779 318.628 317.095 316.646 319.897 314.048V319.864H343.636V278.321C343.777 274.201 342.923 270.108 341.147 266.389C339.37 262.67 336.722 259.434 333.428 256.956ZM318.116 300.279C316.643 302.33 314.63 303.933 312.3 304.908C309.74 306.112 306.939 306.721 304.11 306.689C301.368 306.892 298.642 306.137 296.396 304.552C294.83 302.974 293.951 300.841 293.951 298.618C293.951 296.395 294.83 294.261 296.396 292.683C298.642 291.099 301.368 290.344 304.11 290.547C309.059 290.45 313.915 291.902 317.997 294.701L318.116 300.279Z" fill="white"/>
<path d="M430.638 214.582H418.768C417.026 214.613 415.366 215.327 414.145 216.57C412.924 217.813 412.241 219.486 412.241 221.228V256.837C409.224 254.252 405.71 252.314 401.915 251.14C397.699 249.771 393.289 249.089 388.857 249.121C382.231 248.976 375.682 250.572 369.866 253.751C364.436 256.684 359.981 261.14 357.048 266.57C354.082 272.482 352.537 279.005 352.537 285.62C352.537 292.235 354.082 298.758 357.048 304.671C360.029 310.005 364.477 314.372 369.866 317.253C375.703 320.364 382.244 321.918 388.857 321.763C397.616 321.936 406.11 318.751 412.596 312.861V319.626H436.335V220.991C436.295 219.422 435.701 217.918 434.658 216.745C433.616 215.572 432.191 214.805 430.638 214.582ZM412.241 291.852C410.916 295.104 408.586 297.848 405.593 299.685C402.572 301.691 399.011 302.726 395.386 302.653C390.999 302.717 386.753 301.104 383.516 298.142C381.953 296.595 380.724 294.744 379.907 292.702C379.09 290.66 378.703 288.471 378.768 286.273C378.71 284.075 379.101 281.889 379.917 279.848C380.734 277.807 381.959 275.954 383.516 274.403C386.72 271.388 390.988 269.766 395.386 269.893C398.992 269.834 402.538 270.825 405.593 272.742C408.568 274.653 410.888 277.428 412.241 280.694V291.852Z" fill="white"/>
<path d="M473.961 260.042V251.496H456.276C454.534 251.527 452.874 252.241 451.653 253.484C450.432 254.727 449.747 256.4 449.747 258.143V319.864H474.792V280.576C476.913 276.717 480.443 273.826 484.644 272.505C489.963 270.562 495.601 269.637 501.262 269.775V250.19C495.78 250.121 490.324 250.964 485.118 252.683C480.823 254.127 476.979 256.663 473.961 260.042Z" fill="white"/>
<path d="M568.204 253.988C561.182 250.933 553.606 249.357 545.949 249.357C538.291 249.357 530.716 250.933 523.694 253.988C517.689 256.807 512.592 261.247 508.976 266.807C505.555 272.508 503.748 279.031 503.748 285.679C503.748 292.328 505.555 298.851 508.976 304.552C512.592 310.113 517.689 314.552 523.694 317.371C530.716 320.425 538.291 322.002 545.949 322.002C553.606 322.002 561.182 320.425 568.204 317.371C574.208 314.552 579.307 310.113 582.923 304.552C586.344 298.851 588.151 292.328 588.151 285.679C588.151 279.031 586.344 272.508 582.923 266.807C579.307 261.247 574.208 256.807 568.204 253.988ZM557.996 298.024C554.677 300.827 550.472 302.365 546.127 302.365C541.782 302.365 537.577 300.827 534.258 298.024C531.253 294.814 529.633 290.55 529.747 286.155C529.658 281.764 531.275 277.509 534.258 274.285C537.607 271.547 541.801 270.051 546.127 270.051C550.453 270.051 554.647 271.547 557.996 274.285C560.947 277.521 562.522 281.778 562.388 286.155C562.442 290.411 560.871 294.528 557.996 297.668V298.024Z" fill="white"/>
</g>
<defs>
<clipPath id="clip0_255_169">
<rect width="520" height="120" fill="white" transform="translate(165 202)"/>
</clipPath>
</defs>
</svg>
