<svg width="200" height="200" viewBox="0 0 200 200" fill="none" xmlns="http://www.w3.org/2000/svg">
<path fill-rule="evenodd" clip-rule="evenodd" d="M111.502 73.5169V97.1687H94.3566V66.88C94.3566 65.5858 94.8708 64.3445 95.7859 63.4293C96.7011 62.5141 97.9424 62 99.2366 62H163.035V73.5169H111.502ZM71.3229 62.0001V85.6519H42.0427C41.391 85.6302 40.7416 85.7393 40.1328 85.9727C39.5239 86.2062 38.9681 86.5593 38.498 87.0111C38.0279 87.463 37.6532 88.0045 37.3959 88.6036C37.1386 89.2028 37.004 89.8474 37 90.4994V97.1688H88.5006V62.0001H71.3229ZM71.3229 125.538H54.1777V101.04H37V132.142C37 133.436 37.5141 134.678 38.4293 135.593C39.3445 136.508 40.5858 137.022 41.88 137.022H83.6531C84.9417 137.014 86.1746 136.496 87.0828 135.581C87.9909 134.667 88.5006 133.431 88.5006 132.142V101.04H71.3229V125.538ZM163.035 90.6622V97.1689L128.68 97.2991V85.7822H158.155C159.449 85.7822 160.691 86.2963 161.606 87.2115C162.521 88.1267 163.035 89.368 163.035 90.6622ZM145.857 101.04V125.505H111.502V101.04H94.3566V132.142C94.3566 133.436 94.8708 134.678 95.7859 135.593C96.7011 136.508 97.9424 137.022 99.2366 137.022H158.155C159.449 137.022 160.69 136.508 161.606 135.593C162.521 134.678 163.035 133.436 163.035 132.142V101.04H145.857Z" fill="url(#paint0_linear_1108_880)"/>
<defs>
<linearGradient id="paint0_linear_1108_880" x1="89.3976" y1="136.638" x2="86.3343" y2="62.1259" gradientUnits="userSpaceOnUse">
<stop stop-color="#FF4343"/>
<stop offset="1" stop-color="#00E0DD"/>
</linearGradient>
</defs>
</svg>
