<svg width="256" height="256" viewBox="0 0 256 256" fill="none" xmlns="http://www.w3.org/2000/svg">
<path fill-rule="evenodd" clip-rule="evenodd" d="M91.5724 80V110.026H54.4016C53.5743 109.998 52.7499 110.137 51.977 110.433C51.2041 110.729 50.4984 111.178 49.9017 111.751C49.3049 112.325 48.8292 113.012 48.5026 113.773C48.1759 114.533 48.0051 115.352 48 116.18V124.646H113.379V80H91.5724ZM91.5724 160.661H69.8069V129.561H48V169.045C48 170.688 48.6527 172.264 49.8145 173.425C50.9763 174.587 52.5521 175.24 54.1951 175.24H107.225C108.861 175.229 110.426 174.571 111.579 173.411C112.732 172.25 113.379 170.681 113.379 169.045V129.561H91.5724V160.661ZM208 116.386V124.647L164.386 124.812V110.191H201.805C203.448 110.191 205.023 110.844 206.185 112.006C207.347 113.168 208 114.743 208 116.386ZM186.192 129.561V160.619H142.579V129.561H120.813V169.045C120.813 170.688 121.466 172.264 122.628 173.425C123.79 174.587 125.365 175.24 127.008 175.24H201.804C203.447 175.24 205.023 174.587 206.185 173.425C207.347 172.264 207.999 170.688 207.999 169.045V129.561H186.192ZM142.579 94.6205V124.646H120.813V86.1951C120.813 84.5521 121.466 82.9763 122.628 81.8145C123.79 80.6527 125.365 80 127.008 80H207.999V94.6205H142.579Z" fill="url(#paint0_linear_1108_886)"/>
<defs>
<linearGradient id="paint0_linear_1108_886" x1="114.518" y1="174.752" x2="110.629" y2="80.1599" gradientUnits="userSpaceOnUse">
<stop stop-color="#FF4343"/>
<stop offset="1" stop-color="#00E0DD"/>
</linearGradient>
</defs>
</svg>
