<svg width="850" height="525" viewBox="0 0 850 525" fill="none" xmlns="http://www.w3.org/2000/svg">
<rect width="850" height="525" fill="#C5FE02"/>
<path d="M479.592 249.323H473.132C468.393 249.33 463.746 250.627 459.691 253.074C455.637 255.52 452.33 259.024 450.125 263.207C446.834 268.623 441.865 272.826 435.968 275.178C430.07 277.53 423.565 277.905 417.435 276.246C411.304 274.588 405.882 270.985 401.986 265.983C398.09 260.981 395.933 254.851 395.839 248.519V186.345C395.839 179.888 393.267 173.696 388.688 169.13C384.108 164.564 377.897 162 371.421 162C364.945 162 358.731 164.564 354.152 169.13C349.572 173.696 347 179.888 347 186.345V337.653C347 344.11 349.572 350.303 354.152 354.869C358.731 359.434 364.945 362 371.421 362C377.897 362 384.108 359.434 388.688 354.869C393.267 350.303 395.839 344.11 395.839 337.653V317.533C396.448 310.239 399.784 303.441 405.186 298.485C410.588 293.53 417.659 290.779 425 290.779C432.341 290.779 439.415 293.53 444.817 298.485C450.218 303.441 453.554 310.239 454.163 317.533V337.653C454.163 344.11 456.735 350.303 461.315 354.869C465.894 359.434 472.105 362 478.582 362C485.058 362 491.269 359.434 495.848 354.869C500.428 350.303 503 344.11 503 337.653V273.67C503.005 267.383 500.572 261.339 496.208 256.801C491.845 252.263 485.892 249.583 479.592 249.323Z" fill="#161616"/>
</svg>
